<?xml version="1.0" encoding="UTF-8"?>
<svg viewBox="0 0 266.67 266.67" xmlns="http://www.w3.org/2000/svg">
 <defs>
  <linearGradient id="a" x1="-1.0122" x2=".20732" y1=".50781" y2=".70313">
   <stop stop-color="#fff" stop-opacity=".5" offset="0"/>
   <stop stop-color="#fff" stop-opacity=".25" offset="1"/>
  </linearGradient>
 </defs>
 <g fill-rule="evenodd">
  <path transform="rotate(-41.331 68.815 33.944)" d="m116.88 76.108l-62.311 18.631-48.07-42.164 14.242-60.794 62.312-18.631 48.069 42.164-14.242 60.794z" fill="#ffc62a" stroke="#ff9500" stroke-width="2.5"/>
  <path transform="rotate(-41.48 53.172 47.664)" d="m89.09-9.4659s-58.762 15.235-58.762 17.955c0 2.7205-13.602 52.233-13.058 57.13 0 2.1764 39.719 39.174 44.616 39.174-19.043-44.615-29.381-99.025 27.205-114.26v-1e-5z" fill="url(#a)" stroke-width="1.25"/>
  <path transform="rotate(-41.331 163.57 90.778)" d="m211.64 132.94l-62.311 18.631-48.07-42.164 14.242-60.794 62.312-18.631 48.069 42.164-14.242 60.794z" fill="#ffc62a" stroke="#ff9500" stroke-width="2.5"/>
  <path transform="rotate(-41.48 147.41 106.99)" d="m183.33 49.863s-58.762 15.235-58.762 17.955c0 2.7205-13.602 52.233-13.058 57.13 0 2.1764 39.719 39.174 44.616 39.174-19.043-44.615-29.381-99.025 27.205-114.26v-8e-6z" fill="url(#a)" stroke-width="1.25"/>
  <path transform="rotate(-41.331 63.076 145.73)" d="m111.14 187.89l-62.312 18.631-48.07-42.164 14.242-60.794 62.312-18.631 48.069 42.163-14.242 60.795z" fill="#ffc62a" stroke="#ff9500" stroke-width="2.5"/>
  <path transform="rotate(-41.48 44.935 163.43)" d="m80.855 106.3s-58.762 15.235-58.762 17.955c0 2.7205-13.602 52.233-13.058 57.13 0 2.1764 39.719 39.174 44.616 39.174-19.043-44.615-29.381-99.025 27.205-114.26v-1.5e-5z" fill="url(#a)" stroke-width="1.25"/>
  <path transform="rotate(-41.331 169.51 -21.598)" d="m217.58 20.565l-62.311 18.631-48.07-42.164 14.243-60.794 62.311-18.631 48.069 42.164-14.242 60.794z" fill="#ffc62a" stroke="#ff9500" stroke-width="2.5"/>
  <path transform="rotate(-41.48 151.87 -5.3849)" d="m187.79-62.514s-58.762 15.235-58.762 17.955c0 2.7205-13.602 52.233-13.058 57.13 0 2.1764 39.719 39.174 44.616 39.174-19.043-44.615-29.381-99.025 27.205-114.26z" fill="url(#a)" stroke-width="1.25"/>
  <path transform="rotate(-41.331 157.14 203.15)" d="m205.2 245.32l-62.311 18.631-48.07-42.164 14.242-60.794 62.312-18.631 48.069 42.164-14.242 60.794z" fill="#ffc62a" stroke="#ff9500" stroke-width="2.5"/>
  <path transform="rotate(-41.48 138 218.38)" d="m173.92 161.25s-58.762 15.235-58.762 17.955c0 2.7205-13.602 52.233-13.058 57.13 0 2.1764 39.719 39.174 44.616 39.174-19.043-44.615-29.381-99.025 27.205-114.26v-1.5e-5z" fill="url(#a)" stroke-width="1.25"/>
  <path transform="rotate(-41.331 56.145 257.61)" d="m104.21 299.77l-62.311 18.631-48.07-42.163 14.242-60.795 62.312-18.631 48.069 42.164-14.242 60.794z" fill="#ffc62a" stroke="#ff9500" stroke-width="2.5"/>
  <path transform="rotate(-41.48 37.527 273.82)" d="m73.444 216.69s-58.762 15.235-58.762 17.955c0 2.7205-13.602 52.233-13.058 57.13 0 2.1764 39.719 39.174 44.616 39.174-19.043-44.615-29.381-99.025 27.205-114.26v-1.5e-5z" fill="url(#a)" stroke-width="1.25"/>
  <path transform="rotate(-41.331 264.56 34.837)" d="m312.63 77.001l-62.311 18.631-48.07-42.164 14.242-60.794 62.312-18.631 48.069 42.164-14.242 60.794z" fill="#ffc62a" stroke="#ff9500" stroke-width="2.5"/>
  <path transform="rotate(-41.48 249.39 49.07)" d="m285.31-8.058s-58.762 15.235-58.762 17.955c0 2.7205-13.602 52.233-13.058 57.13 0 2.1764 39.719 39.174 44.616 39.174-19.043-44.615-29.381-99.025 27.205-114.26v-1e-5z" fill="url(#a)" stroke-width="1.25"/>
  <path transform="rotate(-41.331 256.14 147.21)" d="m304.21 189.38l-62.311 18.631-48.07-42.164 14.242-60.794 62.312-18.631 48.069 42.164-14.242 60.794z" fill="#ffc62a" stroke="#ff9500" stroke-width="2.5"/>
  <path transform="rotate(-41.48 238.5 162.93)" d="m274.42 105.8s-58.762 15.235-58.762 17.955c0 2.7205-13.602 52.233-13.058 57.13 0 2.1764 39.719 39.174 44.616 39.174-19.043-44.615-29.381-99.025 27.205-114.26v-1.5e-5z" fill="url(#a)" stroke-width="1.25"/>
  <path transform="rotate(-41.331 252.18 259.1)" d="m300.25 301.26l-62.311 18.631-48.07-42.164 14.242-60.794 62.312-18.631 48.069 42.164-14.242 60.794z" fill="#ffc62a" stroke="#ff9500" stroke-width="2.5"/>
  <path transform="rotate(-41.48 234.54 274.81)" d="m270.46 217.68s-58.762 15.235-58.762 17.955c0 2.7205-13.602 52.233-13.058 57.13 0 2.1764 39.719 39.174 44.616 39.174-19.043-44.615-29.381-99.025 27.205-114.26v-1.5e-5z" fill="url(#a)" stroke-width="1.25"/>
  <path transform="rotate(-41.331 -37.92 201.17)" d="m10.149 243.34l-62.311 18.631-48.07-42.164 14.242-60.794 62.312-18.631 48.069 42.164-14.242 60.794z" fill="#ffc62a" stroke="#ff9500" stroke-width="2.5"/>
  <path transform="rotate(-41.48 -56.062 216.39)" d="m-20.146 159.26s-58.762 15.235-58.762 17.955c0 2.7205-13.602 52.233-13.058 57.13 0 2.1764 39.719 39.174 44.616 39.174-19.043-44.615-29.381-99.025 27.205-114.26v-1.5e-5z" fill="url(#a)" stroke-width="1.25"/>
  <path transform="rotate(-41.331 -30.984 88.798)" d="m17.084 130.96l-62.311 18.631-48.07-42.164 14.242-60.794 62.312-18.631 48.069 42.164-14.242 60.794z" fill="#ffc62a" stroke="#ff9500" stroke-width="2.5"/>
  <path transform="rotate(-41.48 -48.63 104.52)" d="m-12.71 47.388s-58.762 15.235-58.762 17.955c0 2.7205-13.602 52.233-13.058 57.13 0 2.1764 39.719 39.174 44.616 39.174-19.043-44.615-29.381-99.025 27.205-114.26z" fill="url(#a)" stroke-width="1.25"/>
  <path transform="rotate(-41.331 -26.039 -22.584)" d="m22.03 19.58l-62.311 18.631-48.07-42.164 14.242-60.794 62.312-18.631 48.069 42.164-14.242 60.794z" fill="#ffc62a" stroke="#ff9500" stroke-width="2.5"/>
  <path transform="rotate(-41.48 -44.184 -7.3633)" d="m-8.2648-64.494s-58.762 15.235-58.762 17.955c0 2.7205-13.602 52.233-13.058 57.13 0 2.1764 39.719 39.174 44.616 39.174-19.043-44.615-29.381-99.025 27.205-114.26v-8e-6z" fill="url(#a)" stroke-width="1.25"/>
  <path transform="rotate(-41.331 74.333 -78.169)" d="m122.4-36.005l-62.311 18.631-48.07-42.164 14.242-60.794 62.312-18.631 48.069 42.164-14.242 60.794z" fill="#ffc62a" stroke="#ff9500" stroke-width="2.5"/>
  <path transform="rotate(-41.48 57.716 -62.362)" d="m93.635-119.49s-58.762 15.235-58.762 17.955c0 2.7205-13.602 52.233-13.058 57.13 0 2.1764 39.719 39.174 44.616 39.174-19.043-44.615-29.381-99.025 27.205-114.26z" fill="url(#a)" stroke-width="1.25"/>
  <g fill="#ffc62a" stroke="#ff9500" stroke-width="2.5">
   <path transform="rotate(-41.331 -137.67 257.33)" d="m-89.598 299.5l-62.311 18.631-48.07-42.164 14.242-60.794 62.312-18.631 48.069 42.163-14.242 60.794z"/>
   <path transform="rotate(-41.331 -130.67 145.33)" d="m-82.598 187.5l-62.311 18.631-48.07-42.164 14.242-60.794 62.312-18.631 48.069 42.164-14.242 60.794z"/>
   <path transform="rotate(-41.331 -126.67 33.331)" d="m-78.598 75.496l-62.311 18.631-48.07-42.164 14.242-60.794 62.312-18.631 48.069 42.163-14.242 60.794z"/>
   <path transform="rotate(-41.331 51.332 369.83)" d="m99.402 412l-62.311 18.631-48.07-42.164 14.242-60.794 62.312-18.631 48.069 42.164-14.242 60.794z"/>
   <path transform="rotate(-41.331 151.33 313.33)" d="m199.4 355.5l-62.311 18.631-48.07-42.164 14.242-60.794 62.312-18.631 48.069 42.164-14.242 60.794z"/>
   <path transform="rotate(-41.331 -43.168 313.33)" d="m4.9018 355.5l-62.311 18.631-48.07-42.164 14.242-60.794 62.312-18.631 48.069 42.164-14.242 60.794z"/>
  </g>
  <g fill="url(#a)" stroke-width="1.25">
   <path transform="rotate(-41.48 -144.78 49.138)" d="m-108.86-7.9924s-58.762 15.235-58.762 17.955c0 2.7205-13.602 52.233-13.058 57.13 0 2.1764 39.719 39.174 44.616 39.174-19.043-44.615-29.381-99.025 27.205-114.26v-1e-5z"/>
   <path transform="rotate(-41.48 32.716 386.14)" d="m68.635 329.01s-58.762 15.235-58.762 17.955c0 2.7205-13.602 52.233-13.058 57.13 0 2.1764 39.719 39.174 44.616 39.174-19.043-44.615-29.381-99.025 27.205-114.26v-3.1e-5z"/>
   <path transform="rotate(-41.48 131.72 329.14)" d="m167.64 272.01s-58.762 15.235-58.762 17.955c0 2.7205-13.602 52.233-13.058 57.13 0 2.1764 39.719 39.174 44.616 39.174-19.043-44.615-29.381-99.025 27.205-114.26v-3.1e-5z"/>
   <path transform="rotate(-41.48 -61.784 328.14)" d="m-25.865 271.01s-58.762 15.235-58.762 17.955c0 2.7205-13.602 52.233-13.058 57.13 0 2.1764 39.719 39.174 44.616 39.174-19.043-44.615-29.381-99.025 27.205-114.26v-3.1e-5z"/>
   <path transform="rotate(-41.48 -155.78 272.14)" d="m-119.86 215.01s-58.762 15.235-58.762 17.955c0 2.7205-13.602 52.233-13.058 57.13 0 2.1764 39.719 39.174 44.616 39.174-19.043-44.615-29.381-99.025 27.205-114.26v-1.5e-5z"/>
   <path transform="rotate(-41.48 -148.28 161.64)" d="m-112.36 104.51s-58.762 15.235-58.762 17.955c0 2.7205-13.602 52.233-13.058 57.13 0 2.1764 39.719 39.174 44.616 39.174-19.043-44.615-29.381-99.025 27.205-114.26v-8e-6z"/>
  </g>
  <path transform="rotate(-41.331 473.2 -301.63)" d="m521.27-259.46l-62.311 18.631-48.07-42.164 14.242-60.794 62.312-18.631 48.069 42.164-14.242 60.794z" fill="#ffc62a" stroke="#ff9500" stroke-width="2.5"/>
  <path transform="rotate(-41.48 457.56 -287.91)" d="m493.48-345.04s-58.762 15.235-58.762 17.955c0 2.7205-13.602 52.233-13.058 57.13 0 2.1764 39.719 39.174 44.616 39.174-19.043-44.615-29.381-99.025 27.205-114.26v-3.1e-5z" fill="url(#a)" stroke-width="1.25"/>
  <path transform="rotate(-41.331 567.96 -244.8)" d="m616.03-202.63l-62.311 18.631-48.07-42.164 14.242-60.794 62.312-18.631 48.069 42.164-14.242 60.794z" fill="#ffc62a" stroke="#ff9500" stroke-width="2.5"/>
  <path transform="rotate(-41.48 551.8 -228.58)" d="m587.72-285.71s-58.762 15.235-58.762 17.955c0 2.7205-13.602 52.233-13.058 57.13 0 2.1764 39.719 39.174 44.616 39.174-19.043-44.615-29.381-99.025 27.205-114.26v-3.1e-5z" fill="url(#a)" stroke-width="1.25"/>
  <path transform="rotate(-41.331 467.46 -189.84)" d="m515.53-147.68l-62.312 18.631-48.07-42.164 14.242-60.794 62.312-18.631 48.069 42.163-14.242 60.795z" fill="#ffc62a" stroke="#ff9500" stroke-width="2.5"/>
  <path transform="rotate(-41.48 449.32 -172.15)" d="m485.24-229.27s-58.762 15.235-58.762 17.955c0 2.7205-13.602 52.233-13.058 57.13 0 2.1764 39.719 39.174 44.616 39.174-19.043-44.615-29.381-99.025 27.205-114.26v-1.5e-5z" fill="url(#a)" stroke-width="1.25"/>
  <path transform="rotate(-41.331 573.9 -357.17)" d="m621.97-315.01l-62.311 18.631-48.07-42.164 14.243-60.794 62.311-18.631 48.069 42.164-14.242 60.794z" fill="#ffc62a" stroke="#ff9500" stroke-width="2.5"/>
  <path transform="rotate(-41.48 556.25 -340.96)" d="m592.17-398.09s-58.762 15.235-58.762 17.955c0 2.7205-13.602 52.233-13.058 57.13 0 2.1764 39.719 39.174 44.616 39.174-19.043-44.615-29.381-99.025 27.205-114.26z" fill="url(#a)" stroke-width="1.25"/>
  <path transform="rotate(-41.331 561.52 -132.42)" d="m609.59-90.255l-62.311 18.631-48.07-42.164 14.242-60.794 62.312-18.631 48.069 42.164-14.242 60.794z" fill="#ffc62a" stroke="#ff9500" stroke-width="2.5"/>
  <path transform="rotate(-41.48 542.39 -117.2)" d="m578.31-174.32s-58.762 15.235-58.762 17.955c0 2.7205-13.602 52.233-13.058 57.13 0 2.1764 39.719 39.174 44.616 39.174-19.043-44.615-29.381-99.025 27.205-114.26v-1.5e-5z" fill="url(#a)" stroke-width="1.25"/>
  <path transform="rotate(-41.331 460.53 -77.964)" d="m508.6-35.8l-62.311 18.631-48.07-42.163 14.242-60.795 62.312-18.631 48.069 42.164-14.242 60.794z" fill="#ffc62a" stroke="#ff9500" stroke-width="2.5"/>
  <path transform="rotate(-41.48 441.91 -61.755)" d="m477.83-118.88s-58.762 15.235-58.762 17.955c0 2.7205-13.602 52.233-13.058 57.13 0 2.1764 39.719 39.174 44.616 39.174-19.043-44.615-29.381-99.025 27.205-114.26v-1.5e-5z" fill="url(#a)" stroke-width="1.25"/>
  <path transform="rotate(-41.331 668.95 -300.74)" d="m717.02-258.57l-62.311 18.631-48.07-42.164 14.242-60.794 62.312-18.631 48.069 42.164-14.242 60.794z" fill="#ffc62a" stroke="#ff9500" stroke-width="2.5"/>
  <path transform="rotate(-41.48 653.78 -286.5)" d="m689.7-343.63s-58.762 15.235-58.762 17.955c0 2.7205-13.602 52.233-13.058 57.13 0 2.1764 39.719 39.174 44.616 39.174-19.043-44.615-29.381-99.025 27.205-114.26z" fill="url(#a)" stroke-width="1.25"/>
  <path transform="rotate(-41.331 660.53 -188.36)" d="m708.6-146.2l-62.311 18.631-48.07-42.164 14.242-60.794 62.312-18.631 48.069 42.164-14.242 60.794z" fill="#ffc62a" stroke="#ff9500" stroke-width="2.5"/>
  <path transform="rotate(-41.48 642.88 -172.64)" d="m678.8-229.77s-58.762 15.235-58.762 17.955c0 2.7205-13.602 52.233-13.058 57.13 0 2.1764 39.719 39.174 44.616 39.174-19.043-44.615-29.381-99.025 27.205-114.26v-1.5e-5z" fill="url(#a)" stroke-width="1.25"/>
  <path transform="rotate(-41.331 656.57 -76.478)" d="m704.64-34.315l-62.311 18.631-48.07-42.164 14.242-60.794 62.312-18.631 48.069 42.164-14.242 60.794z" fill="#ffc62a" stroke="#ff9500" stroke-width="2.5"/>
  <path transform="rotate(-41.48 638.92 -60.76)" d="m674.84-117.89s-58.762 15.235-58.762 17.955c0 2.7205-13.602 52.233-13.058 57.13 0 2.1764 39.719 39.174 44.616 39.174-19.043-44.615-29.381-99.025 27.205-114.26v-1.5e-5z" fill="url(#a)" stroke-width="1.25"/>
  <path transform="rotate(-41.331 366.47 -134.4)" d="m414.53-92.235l-62.311 18.631-48.07-42.164 14.242-60.794 62.312-18.631 48.069 42.164-14.242 60.794z" fill="#ffc62a" stroke="#ff9500" stroke-width="2.5"/>
  <path transform="rotate(-41.48 348.32 -119.18)" d="m384.24-176.31s-58.762 15.235-58.762 17.955c0 2.7205-13.602 52.233-13.058 57.13 0 2.1764 39.719 39.174 44.616 39.174-19.043-44.615-29.381-99.025 27.205-114.26v-1.5e-5z" fill="url(#a)" stroke-width="1.25"/>
  <path transform="rotate(-41.331 373.4 -246.78)" d="m421.47-204.61l-62.311 18.631-48.07-42.164 14.242-60.794 62.312-18.631 48.069 42.164-14.242 60.794z" fill="#ffc62a" stroke="#ff9500" stroke-width="2.5"/>
  <path transform="rotate(-41.48 355.76 -231.06)" d="m391.68-288.19s-58.762 15.235-58.762 17.955c0 2.7205-13.602 52.233-13.058 57.13 0 2.1764 39.719 39.174 44.616 39.174-19.043-44.615-29.381-99.025 27.205-114.26z" fill="url(#a)" stroke-width="1.25"/>
  <path transform="rotate(-41.331 378.35 -358.16)" d="m426.42-315.99l-62.311 18.631-48.07-42.164 14.242-60.794 62.312-18.631 48.069 42.164-14.242 60.794z" fill="#ffc62a" stroke="#ff9500" stroke-width="2.5"/>
  <path transform="rotate(-41.48 360.2 -342.94)" d="m396.12-400.07s-58.762 15.235-58.762 17.955c0 2.7205-13.602 52.233-13.058 57.13 0 2.1764 39.719 39.174 44.616 39.174-19.043-44.615-29.381-99.025 27.205-114.26z" fill="url(#a)" stroke-width="1.25"/>
  <path transform="rotate(-41.331 478.72 -413.74)" d="m526.79-371.58l-62.311 18.631-48.07-42.164 14.242-60.794 62.312-18.631 48.069 42.164-14.242 60.794z" fill="#ffc62a" stroke="#ff9500" stroke-width="2.5"/>
  <path transform="rotate(-41.48 462.1 -397.94)" d="m498.02-455.07s-58.762 15.235-58.762 17.955c0 2.7205-13.602 52.233-13.058 57.13 0 2.1764 39.719 39.174 44.616 39.174-19.043-44.615-29.381-99.025 27.205-114.26z" fill="url(#a)" stroke-width="1.25"/>
  <g fill="#ffc62a" stroke="#ff9500" stroke-width="2.5">
   <path transform="rotate(-41.331 266.72 -78.242)" d="m314.79-36.078l-62.311 18.631-48.07-42.164 14.242-60.794 62.312-18.631 48.069 42.163-14.242 60.794z"/>
   <path transform="rotate(-41.331 273.72 -190.24)" d="m321.79-148.08l-62.311 18.631-48.07-42.164 14.242-60.794 62.312-18.631 48.069 42.164-14.242 60.794z"/>
   <path transform="rotate(-41.331 277.72 -302.24)" d="m325.79-260.08l-62.311 18.631-48.07-42.164 14.242-60.794 62.312-18.631 48.069 42.164-14.242 60.794z"/>
   <path transform="rotate(-41.331 455.72 34.259)" d="m503.79 76.424l-62.311 18.631-48.07-42.164 14.242-60.794 62.312-18.631 48.069 42.164-14.242 60.794z"/>
   <path transform="rotate(-41.331 555.72 -22.241)" d="m603.79 19.924l-62.311 18.631-48.07-42.164 14.242-60.794 62.312-18.631 48.069 42.164-14.242 60.794z"/>
   <path transform="rotate(-41.331 361.22 -22.241)" d="m409.29 19.924l-62.311 18.631-48.07-42.164 14.242-60.794 62.312-18.631 48.069 42.164-14.242 60.794z"/>
  </g>
  <g fill="url(#a)" stroke-width="1.25">
   <path transform="rotate(-41.48 259.6 -286.44)" d="m295.52-343.57s-58.762 15.235-58.762 17.955c0 2.7205-13.602 52.233-13.058 57.13 0 2.1764 39.719 39.174 44.616 39.174-19.043-44.615-29.381-99.025 27.205-114.26z"/>
   <path transform="rotate(-41.48 437.1 50.565)" d="m473.02-6.5653s-58.762 15.235-58.762 17.955c0 2.7205-13.602 52.233-13.058 57.13 0 2.1764 39.719 39.174 44.616 39.174-19.043-44.615-29.381-99.025 27.205-114.26v-3.1e-5z"/>
   <path transform="rotate(-41.48 536.1 -6.4349)" d="m572.02-63.565s-58.762 15.235-58.762 17.955c0 2.7205-13.602 52.233-13.058 57.13 0 2.1764 39.719 39.174 44.616 39.174-19.043-44.615-29.381-99.025 27.205-114.26v-3.1e-5z"/>
   <path transform="rotate(-41.48 342.6 -7.4349)" d="m378.52-64.565s-58.762 15.235-58.762 17.955c0 2.7205-13.602 52.233-13.058 57.13 0 2.1764 39.719 39.174 44.616 39.174-19.043-44.615-29.381-99.025 27.205-114.26v-3.1e-5z"/>
   <path transform="rotate(-41.48 248.6 -63.435)" d="m284.52-120.57s-58.762 15.235-58.762 17.955c0 2.7205-13.602 52.233-13.058 57.13 0 2.1764 39.719 39.174 44.616 39.174-19.043-44.615-29.381-99.025 27.205-114.26v-1.5e-5z"/>
   <path transform="rotate(-41.48 256.1 -173.94)" d="m292.02-231.07s-58.762 15.235-58.762 17.955c0 2.7205-13.602 52.233-13.058 57.13 0 2.1764 39.719 39.174 44.616 39.174-19.043-44.615-29.381-99.025 27.205-114.26z"/>
  </g>
  <path transform="rotate(-41.331 -7.7985 -358.63)" d="m40.27-316.46l-62.311 18.631-48.07-42.164 14.242-60.794 62.312-18.631 48.069 42.164-14.242 60.794z" fill="#ffc62a" stroke="#ff9500" stroke-width="2.5"/>
  <path transform="rotate(-41.48 -23.442 -344.91)" d="m12.476-402.04s-58.762 15.235-58.762 17.955c0 2.7205-13.602 52.233-13.058 57.13 0 2.1764 39.719 39.174 44.616 39.174-19.043-44.615-29.381-99.025 27.205-114.26z" fill="url(#a)" stroke-width="1.25"/>
  <path transform="rotate(-41.331 86.957 -301.8)" d="m135.03-259.63l-62.311 18.631-48.07-42.164 14.242-60.794 62.312-18.631 48.069 42.164-14.242 60.794z" fill="#ffc62a" stroke="#ff9500" stroke-width="2.5"/>
  <path transform="rotate(-41.48 70.797 -285.58)" d="m106.72-342.71s-58.762 15.235-58.762 17.955c0 2.7205-13.602 52.233-13.058 57.13 0 2.1764 39.719 39.174 44.616 39.174-19.043-44.615-29.381-99.025 27.205-114.26v-3.1e-5z" fill="url(#a)" stroke-width="1.25"/>
  <path transform="rotate(-41.331 -13.538 -246.84)" d="m34.531-204.68l-62.312 18.631-48.07-42.164 14.242-60.794 62.312-18.631 48.069 42.163-14.242 60.795z" fill="#ffc62a" stroke="#ff9500" stroke-width="2.5"/>
  <path transform="rotate(-41.48 -31.678 -229.15)" d="m4.241-286.27s-58.762 15.235-58.762 17.955c0 2.7205-13.602 52.233-13.058 57.13 0 2.1764 39.719 39.174 44.616 39.174-19.043-44.615-29.381-99.025 27.205-114.26z" fill="url(#a)" stroke-width="1.25"/>
  <path transform="rotate(-41.331 92.897 -414.17)" d="m140.97-372.01l-62.311 18.631-48.07-42.164 14.243-60.794 62.311-18.631 48.069 42.164-14.242 60.794z" fill="#ffc62a" stroke="#ff9500" stroke-width="2.5"/>
  <path transform="rotate(-41.48 75.252 -397.96)" d="m111.17-455.09s-58.762 15.235-58.762 17.955c0 2.7205-13.602 52.233-13.058 57.13 0 2.1764 39.719 39.174 44.616 39.174-19.043-44.615-29.381-99.025 27.205-114.26z" fill="url(#a)" stroke-width="1.25"/>
  <path transform="rotate(-41.331 80.521 -189.42)" d="m128.59-147.26l-62.311 18.631-48.07-42.164 14.242-60.794 62.312-18.631 48.069 42.164-14.242 60.794z" fill="#ffc62a" stroke="#ff9500" stroke-width="2.5"/>
  <path transform="rotate(-41.48 61.391 -174.2)" d="m97.31-231.32s-58.762 15.235-58.762 17.955c0 2.7205-13.602 52.233-13.058 57.13 0 2.1764 39.719 39.174 44.616 39.174-19.043-44.615-29.381-99.025 27.205-114.26v-1.5e-5z" fill="url(#a)" stroke-width="1.25"/>
  <path transform="rotate(-41.331 -20.469 -134.96)" d="m27.6-92.8l-62.311 18.631-48.07-42.163 14.242-60.795 62.312-18.631 48.069 42.164-14.242 60.794z" fill="#ffc62a" stroke="#ff9500" stroke-width="2.5"/>
  <path transform="rotate(-41.48 -39.087 -118.76)" d="m-3.1699-175.88s-58.762 15.235-58.762 17.955c0 2.7205-13.602 52.233-13.058 57.13 0 2.1764 39.719 39.174 44.616 39.174-19.043-44.615-29.381-99.025 27.205-114.26v-1.5e-5z" fill="url(#a)" stroke-width="1.25"/>
  <path transform="rotate(-41.331 187.95 -357.74)" d="m236.02-315.57l-62.311 18.631-48.07-42.164 14.242-60.794 62.312-18.631 48.069 42.164-14.242 60.794z" fill="#ffc62a" stroke="#ff9500" stroke-width="2.5"/>
  <path transform="rotate(-41.48 172.78 -343.5)" d="m208.7-400.63s-58.762 15.235-58.762 17.955c0 2.7205-13.602 52.233-13.058 57.13 0 2.1764 39.719 39.174 44.616 39.174-19.043-44.615-29.381-99.025 27.205-114.26z" fill="url(#a)" stroke-width="1.25"/>
  <path transform="rotate(-41.331 179.53 -245.36)" d="m227.6-203.2l-62.311 18.631-48.07-42.164 14.242-60.794 62.312-18.631 48.069 42.164-14.242 60.794z" fill="#ffc62a" stroke="#ff9500" stroke-width="2.5"/>
  <path transform="rotate(-41.48 161.88 -229.64)" d="m197.8-286.77s-58.762 15.235-58.762 17.955c0 2.7205-13.602 52.233-13.058 57.13 0 2.1764 39.719 39.174 44.616 39.174-19.043-44.615-29.381-99.025 27.205-114.26v-3.1e-5z" fill="url(#a)" stroke-width="1.25"/>
  <path transform="rotate(-41.331 175.57 -133.48)" d="m223.64-91.315l-62.311 18.631-48.07-42.164 14.242-60.794 62.312-18.631 48.069 42.164-14.242 60.794z" fill="#ffc62a" stroke="#ff9500" stroke-width="2.5"/>
  <path transform="rotate(-41.48 157.92 -117.76)" d="m193.84-174.89s-58.762 15.235-58.762 17.955c0 2.7205-13.602 52.233-13.058 57.13 0 2.1764 39.719 39.174 44.616 39.174-19.043-44.615-29.381-99.025 27.205-114.26v-1.5e-5z" fill="url(#a)" stroke-width="1.25"/>
  <path transform="rotate(-41.331 -114.53 -191.4)" d="m-66.465-149.24l-62.311 18.631-48.07-42.164 14.242-60.794 62.312-18.631 48.069 42.164-14.242 60.794z" fill="#ffc62a" stroke="#ff9500" stroke-width="2.5"/>
  <path transform="rotate(-41.48 -132.68 -176.18)" d="m-96.76-233.31s-58.762 15.235-58.762 17.955c0 2.7205-13.602 52.233-13.058 57.13 0 2.1764 39.719 39.174 44.616 39.174-19.043-44.615-29.381-99.025 27.205-114.26v-1.5e-5z" fill="url(#a)" stroke-width="1.25"/>
  <path transform="rotate(-41.331 -107.6 -303.78)" d="m-59.529-261.61l-62.311 18.631-48.07-42.164 14.242-60.794 62.312-18.631 48.069 42.164-14.242 60.794z" fill="#ffc62a" stroke="#ff9500" stroke-width="2.5"/>
  <path transform="rotate(-41.48 -125.24 -288.06)" d="m-89.324-345.19s-58.762 15.235-58.762 17.955c0 2.7205-13.602 52.233-13.058 57.13 0 2.1764 39.719 39.174 44.616 39.174-19.043-44.615-29.381-99.025 27.205-114.26z" fill="url(#a)" stroke-width="1.25"/>
  <path transform="rotate(-41.331 -102.65 -415.16)" d="m-54.584-372.99l-62.311 18.631-48.07-42.164 14.242-60.794 62.312-18.631 48.069 42.164-14.242 60.794z" fill="#ffc62a" stroke="#ff9500" stroke-width="2.5"/>
  <path transform="rotate(-41.48 -120.8 -399.94)" d="m-84.879-457.07s-58.762 15.235-58.762 17.955c0 2.7205-13.602 52.233-13.058 57.13 0 2.1764 39.719 39.174 44.616 39.174-19.043-44.615-29.381-99.025 27.205-114.26z" fill="url(#a)" stroke-width="1.25"/>
  <path transform="rotate(-41.331 -2.2806 -470.74)" d="m45.788-428.58l-62.311 18.631-48.07-42.164 14.242-60.794 62.312-18.631 48.069 42.164-14.242 60.794z" fill="#ffc62a" stroke="#ff9500" stroke-width="2.5"/>
  <path transform="rotate(-41.48 -18.898 -454.94)" d="m17.021-512.07s-58.762 15.235-58.762 17.955c0 2.7205-13.602 52.233-13.058 57.13 0 2.1764 39.719 39.174 44.616 39.174-19.043-44.615-29.381-99.025 27.205-114.26z" fill="url(#a)" stroke-width="1.25"/>
  <g fill="#ffc62a" stroke="#ff9500" stroke-width="2.5">
   <path transform="rotate(-41.331 -214.28 -135.24)" d="m-166.21-93.078l-62.311 18.631-48.07-42.164 14.242-60.794 62.312-18.631 48.069 42.163-14.242 60.794z"/>
   <path transform="rotate(-41.331 -207.28 -247.24)" d="m-159.21-205.08l-62.311 18.631-48.07-42.164 14.242-60.794 62.312-18.631 48.069 42.164-14.242 60.794z"/>
   <path transform="rotate(-41.331 -203.28 -359.24)" d="m-155.21-317.08l-62.311 18.631-48.07-42.164 14.242-60.794 62.312-18.631 48.069 42.163-14.242 60.794z"/>
   <path transform="rotate(-41.331 -25.282 -22.741)" d="m22.788 19.424l-62.311 18.631-48.07-42.164 14.242-60.794 62.312-18.631 48.069 42.164-14.242 60.794z"/>
   <path transform="rotate(-41.331 74.718 -79.241)" d="m122.79-37.076l-62.311 18.631-48.07-42.164 14.242-60.794 62.312-18.631 48.069 42.164-14.242 60.794z"/>
   <path transform="rotate(-41.331 -119.78 -79.241)" d="m-71.712-37.076l-62.311 18.631-48.07-42.164 14.242-60.794 62.312-18.631 48.069 42.164-14.242 60.794z"/>
  </g>
  <g fill="url(#a)" stroke-width="1.25">
   <path transform="rotate(-41.48 -221.4 -343.44)" d="m-185.48-400.57s-58.762 15.235-58.762 17.955c0 2.7205-13.602 52.233-13.058 57.13 0 2.1764 39.719 39.174 44.616 39.174-19.043-44.615-29.381-99.025 27.205-114.26z"/>
   <path transform="rotate(-41.48 -43.898 -6.4349)" d="m-7.9789-63.565s-58.762 15.235-58.762 17.955c0 2.7205-13.602 52.233-13.058 57.13 0 2.1764 39.719 39.174 44.616 39.174-19.043-44.615-29.381-99.025 27.205-114.26v-3.1e-5z"/>
   <path transform="rotate(-41.48 55.102 -63.435)" d="m91.021-120.57s-58.762 15.235-58.762 17.955c0 2.7205-13.602 52.233-13.058 57.13 0 2.1764 39.719 39.174 44.616 39.174-19.043-44.615-29.381-99.025 27.205-114.26v-3.1e-5z"/>
   <path transform="rotate(-41.48 -138.4 -64.435)" d="m-102.48-121.57s-58.762 15.235-58.762 17.955c0 2.7205-13.602 52.233-13.058 57.13 0 2.1764 39.719 39.174 44.616 39.174-19.043-44.615-29.381-99.025 27.205-114.26v-3.1e-5z"/>
   <path transform="rotate(-41.48 -232.4 -120.44)" d="m-196.48-177.57s-58.762 15.235-58.762 17.955c0 2.7205-13.602 52.233-13.058 57.13 0 2.1764 39.719 39.174 44.616 39.174-19.043-44.615-29.381-99.025 27.205-114.26v-1.5e-5z"/>
   <path transform="rotate(-41.48 -224.9 -230.94)" d="m-188.98-288.07s-58.762 15.235-58.762 17.955c0 2.7205-13.602 52.233-13.058 57.13 0 2.1764 39.719 39.174 44.616 39.174-19.043-44.615-29.381-99.025 27.205-114.26z"/>
  </g>
  <path transform="rotate(-41.331 -410.8 -23.629)" d="m-362.73 18.535l-62.311 18.631-48.07-42.164 14.242-60.794 62.312-18.631 48.069 42.164-14.242 60.794z" fill="#ffc62a" stroke="#ff9500" stroke-width="2.5"/>
  <path transform="rotate(-41.48 -426.44 -9.9089)" d="m-390.52-67.039s-58.762 15.235-58.762 17.955c0 2.7205-13.602 52.233-13.058 57.13 0 2.1764 39.719 39.174 44.616 39.174-19.043-44.615-29.381-99.025 27.205-114.26v-1.5e-5z" fill="url(#a)" stroke-width="1.25"/>
  <path transform="rotate(-41.331 -316.04 33.205)" d="m-267.97 75.369l-62.311 18.631-48.07-42.164 14.242-60.794 62.312-18.631 48.069 42.164-14.242 60.794z" fill="#ffc62a" stroke="#ff9500" stroke-width="2.5"/>
  <path transform="rotate(-41.48 -332.2 49.418)" d="m-296.28-7.7102s-58.762 15.235-58.762 17.955c0 2.7205-13.602 52.233-13.058 57.13 0 2.1764 39.719 39.174 44.616 39.174-19.043-44.615-29.381-99.025 27.205-114.26v-8e-6z" fill="url(#a)" stroke-width="1.25"/>
  <path transform="rotate(-41.331 -416.54 88.156)" d="m-368.47 130.32l-62.312 18.631-48.07-42.164 14.242-60.794 62.312-18.631 48.069 42.163-14.242 60.795z" fill="#ffc62a" stroke="#ff9500" stroke-width="2.5"/>
  <path transform="rotate(-41.48 -434.68 105.85)" d="m-398.76 48.726s-58.762 15.235-58.762 17.955c0 2.7205-13.602 52.233-13.058 57.13 0 2.1764 39.719 39.174 44.616 39.174-19.043-44.615-29.381-99.025 27.205-114.26v-1.5e-5z" fill="url(#a)" stroke-width="1.25"/>
  <path transform="rotate(-41.331 -310.1 -79.171)" d="m-262.03-37.008l-62.311 18.631-48.07-42.164 14.243-60.794 62.311-18.631 48.069 42.164-14.242 60.794z" fill="#ffc62a" stroke="#ff9500" stroke-width="2.5"/>
  <path transform="rotate(-41.48 -327.75 -62.958)" d="m-291.83-120.09s-58.762 15.235-58.762 17.955c0 2.7205-13.602 52.233-13.058 57.13 0 2.1764 39.719 39.174 44.616 39.174-19.043-44.615-29.381-99.025 27.205-114.26z" fill="url(#a)" stroke-width="1.25"/>
  <path transform="rotate(-41.331 -322.48 145.58)" d="m-274.41 187.74l-62.311 18.631-48.07-42.164 14.242-60.794 62.312-18.631 48.069 42.164-14.242 60.794z" fill="#ffc62a" stroke="#ff9500" stroke-width="2.5"/>
  <path transform="rotate(-41.48 -341.61 160.8)" d="m-305.69 103.68s-58.762 15.235-58.762 17.955c0 2.7205-13.602 52.233-13.058 57.13 0 2.1764 39.719 39.174 44.616 39.174-19.043-44.615-29.381-99.025 27.205-114.26v-1.5e-5z" fill="url(#a)" stroke-width="1.25"/>
  <path transform="rotate(-41.331 -423.47 200.04)" d="m-375.4 242.2l-62.311 18.631-48.07-42.163 14.242-60.795 62.312-18.631 48.069 42.164-14.242 60.794z" fill="#ffc62a" stroke="#ff9500" stroke-width="2.5"/>
  <path transform="rotate(-41.48 -442.09 216.24)" d="m-406.17 159.12s-58.762 15.235-58.762 17.955c0 2.7205-13.602 52.233-13.058 57.13 0 2.1764 39.719 39.174 44.616 39.174-19.043-44.615-29.381-99.025 27.205-114.26v-1.5e-5z" fill="url(#a)" stroke-width="1.25"/>
  <path transform="rotate(-41.331 -215.05 -22.736)" d="m-166.98 19.428l-62.311 18.631-48.07-42.164 14.242-60.794 62.312-18.631 48.069 42.164-14.242 60.794z" fill="#ffc62a" stroke="#ff9500" stroke-width="2.5"/>
  <path transform="rotate(-41.48 -230.22 -8.5024)" d="m-194.3-65.631s-58.762 15.235-58.762 17.955c0 2.7205-13.602 52.233-13.058 57.13 0 2.1764 39.719 39.174 44.616 39.174-19.043-44.615-29.381-99.025 27.205-114.26z" fill="url(#a)" stroke-width="1.25"/>
  <path transform="rotate(-41.331 -223.47 89.64)" d="m-175.4 131.8l-62.311 18.631-48.07-42.164 14.242-60.794 62.312-18.631 48.069 42.164-14.242 60.794z" fill="#ffc62a" stroke="#ff9500" stroke-width="2.5"/>
  <path transform="rotate(-41.48 -241.12 105.36)" d="m-205.2 48.23s-58.762 15.235-58.762 17.955c0 2.7205-13.602 52.233-13.058 57.13 0 2.1764 39.719 39.174 44.616 39.174-19.043-44.615-29.381-99.025 27.205-114.26v-1.5e-5z" fill="url(#a)" stroke-width="1.25"/>
  <path transform="rotate(-41.331 -227.43 201.52)" d="m-179.36 243.69l-62.311 18.631-48.07-42.164 14.242-60.794 62.312-18.631 48.069 42.164-14.242 60.794z" fill="#ffc62a" stroke="#ff9500" stroke-width="2.5"/>
  <path transform="rotate(-41.48 -245.08 217.24)" d="m-209.16 160.11s-58.762 15.235-58.762 17.955c0 2.7205-13.602 52.233-13.058 57.13 0 2.1764 39.719 39.174 44.616 39.174-19.043-44.615-29.381-99.025 27.205-114.26v-1.5e-5z" fill="url(#a)" stroke-width="1.25"/>
  <path transform="rotate(-41.331 -517.53 143.6)" d="m-469.47 185.76l-62.311 18.631-48.07-42.164 14.242-60.794 62.312-18.631 48.069 42.164-14.242 60.794z" fill="#ffc62a" stroke="#ff9500" stroke-width="2.5"/>
  <path transform="rotate(-41.48 -535.68 158.82)" d="m-499.76 101.69s-58.762 15.235-58.762 17.955c0 2.7205-13.602 52.233-13.058 57.13 0 2.1764 39.719 39.174 44.616 39.174-19.043-44.615-29.381-99.025 27.205-114.26v-1.5e-5z" fill="url(#a)" stroke-width="1.25"/>
  <path transform="rotate(-41.331 -510.6 31.225)" d="m-462.53 73.388l-62.311 18.631-48.07-42.164 14.242-60.794 62.312-18.631 48.069 42.164-14.242 60.794z" fill="#ffc62a" stroke="#ff9500" stroke-width="2.5"/>
  <path transform="rotate(-41.48 -528.24 46.943)" d="m-492.32-10.185s-58.762 15.235-58.762 17.955c0 2.7205-13.602 52.233-13.058 57.13 0 2.1764 39.719 39.174 44.616 39.174-19.043-44.615-29.381-99.025 27.205-114.26z" fill="url(#a)" stroke-width="1.25"/>
  <path transform="rotate(-41.331 -505.65 -80.157)" d="m-457.58-37.993l-62.311 18.631-48.07-42.164 14.242-60.794 62.312-18.631 48.069 42.164-14.242 60.794z" fill="#ffc62a" stroke="#ff9500" stroke-width="2.5"/>
  <path transform="rotate(-41.48 -523.8 -64.936)" d="m-487.88-122.07s-58.762 15.235-58.762 17.955c0 2.7205-13.602 52.233-13.058 57.13 0 2.1764 39.719 39.174 44.616 39.174-19.043-44.615-29.381-99.025 27.205-114.26z" fill="url(#a)" stroke-width="1.25"/>
  <path transform="rotate(-41.331 -405.28 -135.74)" d="m-357.21-93.578l-62.311 18.631-48.07-42.164 14.242-60.794 62.312-18.631 48.069 42.164-14.242 60.794z" fill="#ffc62a" stroke="#ff9500" stroke-width="2.5"/>
  <path transform="rotate(-41.48 -421.9 -119.94)" d="m-385.98-177.07s-58.762 15.235-58.762 17.955c0 2.7205-13.602 52.233-13.058 57.13 0 2.1764 39.719 39.174 44.616 39.174-19.043-44.615-29.381-99.025 27.205-114.26z" fill="url(#a)" stroke-width="1.25"/>
  <g fill="#ffc62a" stroke="#ff9500" stroke-width="2.5">
   <path transform="rotate(-41.331 -617.28 199.76)" d="m-569.21 241.92l-62.311 18.631-48.07-42.164 14.242-60.794 62.312-18.631 48.069 42.163-14.242 60.794z"/>
   <path transform="rotate(-41.331 -610.28 87.758)" d="m-562.21 129.92l-62.311 18.631-48.07-42.164 14.242-60.794 62.312-18.631 48.069 42.164-14.242 60.794z"/>
   <path transform="rotate(-41.331 -606.28 -24.242)" d="m-558.21 17.922l-62.311 18.631-48.07-42.164 14.242-60.794 62.312-18.631 48.069 42.164-14.242 60.794z"/>
   <path transform="rotate(-41.331 -428.28 312.26)" d="m-380.21 354.42l-62.311 18.631-48.07-42.164 14.242-60.794 62.312-18.631 48.069 42.164-14.242 60.794z"/>
   <path transform="rotate(-41.331 -328.28 255.76)" d="m-280.21 297.92l-62.311 18.631-48.07-42.164 14.242-60.794 62.312-18.631 48.069 42.164-14.242 60.794z"/>
   <path transform="rotate(-41.331 -522.78 255.76)" d="m-474.71 297.92l-62.311 18.631-48.07-42.164 14.242-60.794 62.312-18.631 48.069 42.164-14.242 60.794z"/>
  </g>
  <g fill="url(#a)" stroke-width="1.25">
   <path transform="rotate(-41.48 -624.4 -8.4349)" d="m-588.48-65.565s-58.762 15.235-58.762 17.955c0 2.7205-13.602 52.233-13.058 57.13 0 2.1764 39.719 39.174 44.616 39.174-19.043-44.615-29.381-99.025 27.205-114.26v-1.5e-5z"/>
   <path transform="rotate(-41.48 -446.9 328.56)" d="m-410.98 271.43s-58.762 15.235-58.762 17.955c0 2.7205-13.602 52.233-13.058 57.13 0 2.1764 39.719 39.174 44.616 39.174-19.043-44.615-29.381-99.025 27.205-114.26v-3.1e-5z"/>
   <path transform="rotate(-41.48 -347.9 271.56)" d="m-311.98 214.43s-58.762 15.235-58.762 17.955c0 2.7205-13.602 52.233-13.058 57.13 0 2.1764 39.719 39.174 44.616 39.174-19.043-44.615-29.381-99.025 27.205-114.26v-3.1e-5z"/>
   <path transform="rotate(-41.48 -541.4 270.56)" d="m-505.48 213.43s-58.762 15.235-58.762 17.955c0 2.7205-13.602 52.233-13.058 57.13 0 2.1764 39.719 39.174 44.616 39.174-19.043-44.615-29.381-99.025 27.205-114.26v-3.1e-5z"/>
   <path transform="rotate(-41.48 -635.4 214.56)" d="m-599.48 157.43s-58.762 15.235-58.762 17.955c0 2.7205-13.602 52.233-13.058 57.13 0 2.1764 39.719 39.174 44.616 39.174-19.043-44.615-29.381-99.025 27.205-114.26v-1.5e-5z"/>
   <path transform="rotate(-41.48 -627.9 104.06)" d="m-591.98 46.935s-58.762 15.235-58.762 17.955c0 2.7205-13.602 52.233-13.058 57.13 0 2.1764 39.719 39.174 44.616 39.174-19.043-44.615-29.381-99.025 27.205-114.26v-8e-6z"/>
  </g>
  <path transform="rotate(-41.331 551.82 88.944)" d="m599.88 131.11l-62.311 18.631-48.07-42.164 14.242-60.794 62.312-18.631 48.069 42.164-14.242 60.794z" fill="#ffc62a" stroke="#ff9500" stroke-width="2.5"/>
  <path transform="rotate(-41.48 536.17 102.66)" d="m572.09 45.534s-58.762 15.235-58.762 17.955c0 2.7205-13.602 52.233-13.058 57.13 0 2.1764 39.719 39.174 44.616 39.174-19.043-44.615-29.381-99.025 27.205-114.26v-1.5e-5z" fill="url(#a)" stroke-width="1.25"/>
  <path transform="rotate(-41.331 646.57 145.78)" d="m694.64 187.94l-62.311 18.631-48.07-42.164 14.242-60.794 62.312-18.631 48.069 42.164-14.242 60.794z" fill="#ffc62a" stroke="#ff9500" stroke-width="2.5"/>
  <path transform="rotate(-41.48 630.41 161.99)" d="m666.33 104.86s-58.762 15.235-58.762 17.955c0 2.7205-13.602 52.233-13.058 57.13 0 2.1764 39.719 39.174 44.616 39.174-19.043-44.615-29.381-99.025 27.205-114.26v-1.5e-5z" fill="url(#a)" stroke-width="1.25"/>
  <path transform="rotate(-41.331 546.08 200.73)" d="m594.14 242.89l-62.312 18.631-48.07-42.164 14.242-60.794 62.312-18.631 48.069 42.163-14.242 60.795z" fill="#ffc62a" stroke="#ff9500" stroke-width="2.5"/>
  <path transform="rotate(-41.48 527.94 218.43)" d="m563.85 161.3s-58.762 15.235-58.762 17.955c0 2.7205-13.602 52.233-13.058 57.13 0 2.1764 39.719 39.174 44.616 39.174-19.043-44.615-29.381-99.025 27.205-114.26v-1.5e-5z" fill="url(#a)" stroke-width="1.25"/>
  <path transform="rotate(-41.331 652.51 33.402)" d="m700.58 75.565l-62.311 18.631-48.07-42.164 14.243-60.794 62.311-18.631 48.069 42.164-14.242 60.794z" fill="#ffc62a" stroke="#ff9500" stroke-width="2.5"/>
  <path transform="rotate(-41.48 634.87 49.615)" d="m670.79-7.5135s-58.762 15.235-58.762 17.955c0 2.7205-13.602 52.233-13.058 57.13 0 2.1764 39.719 39.174 44.616 39.174-19.043-44.615-29.381-99.025 27.205-114.26z" fill="url(#a)" stroke-width="1.25"/>
  <path transform="rotate(-41.331 640.14 258.15)" d="m688.2 300.32l-62.311 18.631-48.07-42.164 14.242-60.794 62.312-18.631 48.069 42.164-14.242 60.794z" fill="#ffc62a" stroke="#ff9500" stroke-width="2.5"/>
  <path transform="rotate(-41.48 621 273.38)" d="m656.92 216.25s-58.762 15.235-58.762 17.955c0 2.7205-13.602 52.233-13.058 57.13 0 2.1764 39.719 39.174 44.616 39.174-19.043-44.615-29.381-99.025 27.205-114.26v-3.1e-5z" fill="url(#a)" stroke-width="1.25"/>
  <path transform="rotate(-41.331 539.14 312.61)" d="m587.21 354.77l-62.311 18.631-48.07-42.163 14.242-60.795 62.312-18.631 48.069 42.164-14.242 60.794z" fill="#ffc62a" stroke="#ff9500" stroke-width="2.5"/>
  <path transform="rotate(-41.48 520.53 328.82)" d="m556.44 271.69s-58.762 15.235-58.762 17.955c0 2.7205-13.602 52.233-13.058 57.13 0 2.1764 39.719 39.174 44.616 39.174-19.043-44.615-29.381-99.025 27.205-114.26z" fill="url(#a)" stroke-width="1.25"/>
  <path transform="rotate(-41.331 747.56 89.837)" d="m795.63 132l-62.311 18.631-48.07-42.164 14.242-60.794 62.312-18.631 48.069 42.164-14.242 60.794z" fill="#ffc62a" stroke="#ff9500" stroke-width="2.5"/>
  <path transform="rotate(-41.48 732.39 104.07)" d="m768.31 46.942s-58.762 15.235-58.762 17.955c0 2.7205-13.602 52.233-13.058 57.13 0 2.1764 39.719 39.174 44.616 39.174-19.043-44.615-29.381-99.025 27.205-114.26v-1.5e-5z" fill="url(#a)" stroke-width="1.25"/>
  <path transform="rotate(-41.331 739.14 202.21)" d="m787.21 244.38l-62.311 18.631-48.07-42.164 14.242-60.794 62.312-18.631 48.069 42.164-14.242 60.794z" fill="#ffc62a" stroke="#ff9500" stroke-width="2.5"/>
  <path transform="rotate(-41.48 721.5 217.93)" d="m757.42 160.8s-58.762 15.235-58.762 17.955c0 2.7205-13.602 52.233-13.058 57.13 0 2.1764 39.719 39.174 44.616 39.174-19.043-44.615-29.381-99.025 27.205-114.26v-1.5e-5z" fill="url(#a)" stroke-width="1.25"/>
  <path transform="rotate(-41.331 735.18 314.1)" d="m783.25 356.26l-62.311 18.631-48.07-42.164 14.242-60.794 62.312-18.631 48.069 42.164-14.242 60.794z" fill="#ffc62a" stroke="#ff9500" stroke-width="2.5"/>
  <path transform="rotate(-41.48 717.54 329.81)" d="m753.46 272.68s-58.762 15.235-58.762 17.955c0 2.7205-13.602 52.233-13.058 57.13 0 2.1764 39.719 39.174 44.616 39.174-19.043-44.615-29.381-99.025 27.205-114.26z" fill="url(#a)" stroke-width="1.25"/>
  <path transform="rotate(-41.331 445.08 256.17)" d="m493.15 298.34l-62.311 18.631-48.07-42.164 14.242-60.794 62.312-18.631 48.069 42.164-14.242 60.794z" fill="#ffc62a" stroke="#ff9500" stroke-width="2.5"/>
  <path transform="rotate(-41.48 426.94 271.39)" d="m462.85 214.26s-58.762 15.235-58.762 17.955c0 2.7205-13.602 52.233-13.058 57.13 0 2.1764 39.719 39.174 44.616 39.174-19.043-44.615-29.381-99.025 27.205-114.26z" fill="url(#a)" stroke-width="1.25"/>
  <path transform="rotate(-41.331 452.02 143.8)" d="m500.08 185.96l-62.311 18.631-48.07-42.164 14.242-60.794 62.312-18.631 48.069 42.164-14.242 60.794z" fill="#ffc62a" stroke="#ff9500" stroke-width="2.5"/>
  <path transform="rotate(-41.48 434.37 159.52)" d="m470.29 102.39s-58.762 15.235-58.762 17.955c0 2.7205-13.602 52.233-13.058 57.13 0 2.1764 39.719 39.174 44.616 39.174-19.043-44.615-29.381-99.025 27.205-114.26z" fill="url(#a)" stroke-width="1.25"/>
  <path transform="rotate(-41.331 456.96 32.416)" d="m505.03 74.58l-62.311 18.631-48.07-42.164 14.242-60.794 62.312-18.631 48.069 42.164-14.242 60.794z" fill="#ffc62a" stroke="#ff9500" stroke-width="2.5"/>
  <path transform="rotate(-41.48 438.82 47.637)" d="m474.74-9.4937s-58.762 15.235-58.762 17.955c0 2.7205-13.602 52.233-13.058 57.13 0 2.1764 39.719 39.174 44.616 39.174-19.043-44.615-29.381-99.025 27.205-114.26v-8e-6z" fill="url(#a)" stroke-width="1.25"/>
  <path transform="rotate(-41.331 557.33 -23.169)" d="m605.4 18.996l-62.311 18.631-48.07-42.164 14.242-60.794 62.312-18.631 48.069 42.164-14.242 60.794z" fill="#ffc62a" stroke="#ff9500" stroke-width="2.5"/>
  <path transform="rotate(-41.48 540.72 -7.362)" d="m576.63-64.492s-58.762 15.235-58.762 17.955c0 2.7205-13.602 52.233-13.058 57.13 0 2.1764 39.719 39.174 44.616 39.174-19.043-44.615-29.381-99.025 27.205-114.26z" fill="url(#a)" stroke-width="1.25"/>
  <g fill="#ffc62a" stroke="#ff9500" stroke-width="2.5">
   <path transform="rotate(-41.331 345.33 312.33)" d="m393.4 354.5l-62.311 18.631-48.07-42.164 14.242-60.794 62.312-18.631 48.069 42.164-14.242 60.794z"/>
   <path transform="rotate(-41.331 352.33 200.33)" d="m400.4 242.5l-62.311 18.631-48.07-42.164 14.242-60.794 62.312-18.631 48.069 42.164-14.242 60.794z"/>
   <path transform="rotate(-41.331 356.33 88.331)" d="m404.4 130.5l-62.311 18.631-48.07-42.164 14.242-60.794 62.312-18.631 48.069 42.164-14.242 60.794z"/>
   <path transform="rotate(-41.331 534.33 424.83)" d="m582.4 467l-62.311 18.631-48.07-42.164 14.242-60.794 62.312-18.631 48.069 42.164-14.242 60.794z"/>
   <path transform="rotate(-41.331 634.33 368.33)" d="m682.4 410.5l-62.311 18.631-48.07-42.164 14.242-60.794 62.312-18.631 48.069 42.164-14.242 60.794z"/>
   <path transform="rotate(-41.331 439.83 368.33)" d="m487.9 410.5l-62.311 18.631-48.07-42.164 14.242-60.794 62.312-18.631 48.069 42.164-14.242 60.794z"/>
  </g>
  <g fill="url(#a)" stroke-width="1.25">
   <path transform="rotate(-41.48 338.22 104.14)" d="m374.14 47.008s-58.762 15.235-58.762 17.955c0 2.7205-13.602 52.233-13.058 57.13 0 2.1764 39.719 39.174 44.616 39.174-19.043-44.615-29.381-99.025 27.205-114.26v-1.5e-5z"/>
   <path transform="rotate(-41.48 515.72 441.14)" d="m551.64 384.01s-58.762 15.235-58.762 17.955c0 2.7205-13.602 52.233-13.058 57.13 0 2.1764 39.719 39.174 44.616 39.174-19.043-44.615-29.381-99.025 27.205-114.26v-3.1e-5z"/>
   <path transform="rotate(-41.48 614.72 384.14)" d="m650.64 327.01s-58.762 15.235-58.762 17.955c0 2.7205-13.602 52.233-13.058 57.13 0 2.1764 39.719 39.174 44.616 39.174-19.043-44.615-29.381-99.025 27.205-114.26v-3.1e-5z"/>
   <path transform="rotate(-41.48 421.22 383.14)" d="m457.14 326.01s-58.762 15.235-58.762 17.955c0 2.7205-13.602 52.233-13.058 57.13 0 2.1764 39.719 39.174 44.616 39.174-19.043-44.615-29.381-99.025 27.205-114.26v-3.1e-5z"/>
   <path transform="rotate(-41.48 327.22 327.14)" d="m363.14 270.01s-58.762 15.235-58.762 17.955c0 2.7205-13.602 52.233-13.058 57.13 0 2.1764 39.719 39.174 44.616 39.174-19.043-44.615-29.381-99.025 27.205-114.26v-3.1e-5z"/>
   <path transform="rotate(-41.48 334.72 216.64)" d="m370.64 159.51s-58.762 15.235-58.762 17.955c0 2.7205-13.602 52.233-13.058 57.13 0 2.1764 39.719 39.174 44.616 39.174-19.043-44.615-29.381-99.025 27.205-114.26z"/>
  </g>
 </g>
</svg>
